<svg width="960" height="540" xmlns="http://www.w3.org/2000/svg" xmlns:xlink="http://www.w3.org/1999/xlink" version="1.1" baseProfile="full" viewBox="0 0 960 540">
<rect width="960" height="540" x="0" y="0" fill="none"></rect>
<polyline points="544.7 121.5 550.7 107.7 565.7 107.7" fill="none" pointer-events="visible" stroke="#5470c6" class="zr0-cls-0"></polyline>
<polyline points="631.1 211.6 645.1 206.1 660.1 206.1" fill="none" pointer-events="visible" stroke="#91cc75" class="zr0-cls-0"></polyline>
<polyline points="634.9 317.6 649.2 322 664.2 322" fill="none" pointer-events="visible" stroke="#fac858" class="zr0-cls-0"></polyline>
<polyline points="598.5 380.5 609.5 390.7 624.5 390.7" fill="none" pointer-events="visible" stroke="#ee6666" class="zr0-cls-0"></polyline>
<polyline points="326.6 322.1 312.4 326.9 297.4 326.9" fill="none" pointer-events="visible" stroke="#73c0de" class="zr0-cls-0"></polyline>
<path d="M480 108A162 162 0 0 1 598.6 159.7L480 270Z" fill="#5470c6" ecmeta_series_index="0" ecmeta_data_index="0" ecmeta_ssr_type="chart" transform-origin="480px 270px" class="zr0-cls-1 zr0-cls-2"></path>
<path d="M598.6 159.7A162 162 0 0 1 642 271.8L480 270Z" fill="#91cc75" ecmeta_series_index="0" ecmeta_data_index="1" ecmeta_ssr_type="chart" transform-origin="480px 270px" class="zr0-cls-3 zr0-cls-4"></path>
<path d="M642 271.8A162 162 0 0 1 615.1 359.4L480 270Z" fill="#fac858" ecmeta_series_index="0" ecmeta_data_index="2" ecmeta_ssr_type="chart" transform-origin="480px 270px" class="zr0-cls-5 zr0-cls-6"></path>
<path d="M615.1 359.4A162 162 0 0 1 578.7 398.5L480 270Z" fill="#ee6666" ecmeta_series_index="0" ecmeta_data_index="3" ecmeta_ssr_type="chart" transform-origin="480px 270px" class="zr0-cls-7 zr0-cls-8"></path>
<path d="M578.7 398.5A162 162 0 1 1 480 108L480 270Z" fill="#73c0de" ecmeta_series_index="0" ecmeta_data_index="4" ecmeta_ssr_type="chart" transform-origin="480px 270px" class="zr0-cls-9 zr0-cls-10"></path>
<text dominant-baseline="central" text-anchor="start" style="font-size:12px;font-family:sans-serif;" transform="translate(570.6814 107.7251)" fill="#333" stroke="rgb(255,255,255)" stroke-width="2" paint-order="stroke" stroke-miterlimit="2">直接访问</text>
<text dominant-baseline="central" text-anchor="start" style="font-size:12px;font-family:sans-serif;" transform="translate(665.0798 206.1436)" fill="#333" stroke="rgb(255,255,255)" stroke-width="2" paint-order="stroke" stroke-miterlimit="2">邮件营销</text>
<text dominant-baseline="central" text-anchor="start" style="font-size:12px;font-family:sans-serif;" transform="translate(669.2002 321.9642)" fill="#333" stroke="rgb(255,255,255)" stroke-width="2" paint-order="stroke" stroke-miterlimit="2">联盟广告</text>
<text dominant-baseline="central" text-anchor="start" style="font-size:12px;font-family:sans-serif;" transform="translate(629.4545 390.7084)" fill="#333" stroke="rgb(255,255,255)" stroke-width="2" paint-order="stroke" stroke-miterlimit="2">视频广告</text>
<text dominant-baseline="central" text-anchor="end" style="font-size:12px;font-family:sans-serif;" transform="translate(292.4021 326.9205)" fill="#333" stroke="rgb(255,255,255)" stroke-width="2" paint-order="stroke" stroke-miterlimit="2">搜索引擎</text>
<path d="M-5 -5l440 0l0 24l-440 0Z" transform="translate(265 521)" fill="rgb(0,0,0)" fill-opacity="0" stroke="#ccc" stroke-width="0" class="zr0-cls-11"></path>
<path d="M3.5 0L21.5 0A3.5 3.5 0 0 1 25 3.5L25 10.5A3.5 3.5 0 0 1 21.5 14L3.5 14A3.5 3.5 0 0 1 0 10.5L0 3.5A3.5 3.5 0 0 1 3.5 0" transform="translate(265 521)" fill="#5470c6" ecmeta_series_index="0" ecmeta_data_index="0" ecmeta_ssr_type="legend" ecmeta_silent="true" class="zr0-cls-11"></path>
<text dominant-baseline="central" text-anchor="start" style="font-size:12px;font-family:sans-serif;" x="30" y="7" transform="translate(265 521)" fill="#333">直接访问</text>
<path d="M0 0l78 0l0 14l-78 0Z" transform="translate(265 521)" fill="none" pointer-events="visible" ecmeta_series_index="0" ecmeta_data_index="0" ecmeta_ssr_type="legend" class="zr0-cls-12"></path>
<path d="M3.5 0L21.5 0A3.5 3.5 0 0 1 25 3.5L25 10.5A3.5 3.5 0 0 1 21.5 14L3.5 14A3.5 3.5 0 0 1 0 10.5L0 3.5A3.5 3.5 0 0 1 3.5 0" transform="translate(353 521)" fill="#91cc75" ecmeta_series_index="0" ecmeta_data_index="1" ecmeta_ssr_type="legend" ecmeta_silent="true" class="zr0-cls-11"></path>
<text dominant-baseline="central" text-anchor="start" style="font-size:12px;font-family:sans-serif;" x="30" y="7" transform="translate(353 521)" fill="#333">邮件营销</text>
<path d="M0 0l78 0l0 14l-78 0Z" transform="translate(353 521)" fill="none" pointer-events="visible" ecmeta_series_index="0" ecmeta_data_index="1" ecmeta_ssr_type="legend" class="zr0-cls-12"></path>
<path d="M3.5 0L21.5 0A3.5 3.5 0 0 1 25 3.5L25 10.5A3.5 3.5 0 0 1 21.5 14L3.5 14A3.5 3.5 0 0 1 0 10.5L0 3.5A3.5 3.5 0 0 1 3.5 0" transform="translate(441 521)" fill="#fac858" ecmeta_series_index="0" ecmeta_data_index="2" ecmeta_ssr_type="legend" ecmeta_silent="true" class="zr0-cls-11"></path>
<text dominant-baseline="central" text-anchor="start" style="font-size:12px;font-family:sans-serif;" x="30" y="7" transform="translate(441 521)" fill="#333">联盟广告</text>
<path d="M0 0l78 0l0 14l-78 0Z" transform="translate(441 521)" fill="none" pointer-events="visible" ecmeta_series_index="0" ecmeta_data_index="2" ecmeta_ssr_type="legend" class="zr0-cls-12"></path>
<path d="M3.5 0L21.5 0A3.5 3.5 0 0 1 25 3.5L25 10.5A3.5 3.5 0 0 1 21.5 14L3.5 14A3.5 3.5 0 0 1 0 10.5L0 3.5A3.5 3.5 0 0 1 3.5 0" transform="translate(529 521)" fill="#ee6666" ecmeta_series_index="0" ecmeta_data_index="3" ecmeta_ssr_type="legend" ecmeta_silent="true" class="zr0-cls-11"></path>
<text dominant-baseline="central" text-anchor="start" style="font-size:12px;font-family:sans-serif;" x="30" y="7" transform="translate(529 521)" fill="#333">视频广告</text>
<path d="M0 0l78 0l0 14l-78 0Z" transform="translate(529 521)" fill="none" pointer-events="visible" ecmeta_series_index="0" ecmeta_data_index="3" ecmeta_ssr_type="legend" class="zr0-cls-12"></path>
<path d="M3.5 0L21.5 0A3.5 3.5 0 0 1 25 3.5L25 10.5A3.5 3.5 0 0 1 21.5 14L3.5 14A3.5 3.5 0 0 1 0 10.5L0 3.5A3.5 3.5 0 0 1 3.5 0" transform="translate(617 521)" fill="#73c0de" ecmeta_series_index="0" ecmeta_data_index="4" ecmeta_ssr_type="legend" ecmeta_silent="true" class="zr0-cls-11"></path>
<text dominant-baseline="central" text-anchor="start" style="font-size:12px;font-family:sans-serif;" x="30" y="7" transform="translate(617 521)" fill="#333">搜索引擎</text>
<path d="M0 0l78 0l0 14l-78 0Z" transform="translate(617 521)" fill="none" pointer-events="visible" ecmeta_series_index="0" ecmeta_data_index="4" ecmeta_ssr_type="legend" class="zr0-cls-12"></path>
<path d="M-59 -5l118 0l0 50l-118 0Z" transform="translate(480 5)" fill="rgb(0,0,0)" fill-opacity="0" stroke="#ccc" stroke-width="0" class="zr0-cls-11"></path>
<text dominant-baseline="central" text-anchor="middle" style="font-size:18px;font-family:sans-serif;font-weight:bold;" y="9" transform="translate(480 5)" fill="#464646">访问来源占比</text>
<text dominant-baseline="central" text-anchor="middle" style="font-size:12px;font-family:sans-serif;" y="34" transform="translate(480 5)" fill="#6E7079">默认示例数据</text>
<style ><![CDATA[
.zr0-cls-0:hover {
cursor:pointer;
}
.zr0-cls-1 {
animation:zr0-ani-0 1s cubic-bezier(0.65,0,0.35,1) both;
}
.zr0-cls-2:hover {
cursor:pointer;
fill:rgba(92,123,217,1);
}
.zr0-cls-3 {
animation:zr0-ani-1 1s cubic-bezier(0.65,0,0.35,1) both;
}
.zr0-cls-4:hover {
cursor:pointer;
fill:rgba(159,224,128,1);
}
.zr0-cls-5 {
animation:zr0-ani-2 1s cubic-bezier(0.65,0,0.35,1) both;
}
.zr0-cls-6:hover {
cursor:pointer;
fill:rgba(255,220,96,1);
}
.zr0-cls-7 {
animation:zr0-ani-3 1s cubic-bezier(0.65,0,0.35,1) both;
}
.zr0-cls-8:hover {
cursor:pointer;
fill:rgba(255,112,112,1);
}
.zr0-cls-9 {
animation:zr0-ani-4 1s cubic-bezier(0.65,0,0.35,1) both;
}
.zr0-cls-10:hover {
cursor:pointer;
fill:rgba(126,211,244,1);
}
.zr0-cls-11:hover {
pointer-events:none;
}
.zr0-cls-12:hover {
cursor:pointer;
fill:rgba(0,0,0,0);
}
@keyframes zr0-ani-0 {
0% {
transform:scale(0,0);
}
100% {

}
}
@keyframes zr0-ani-1 {
0% {
transform:scale(0,0);
}
100% {

}
}
@keyframes zr0-ani-2 {
0% {
transform:scale(0,0);
}
100% {

}
}
@keyframes zr0-ani-3 {
0% {
transform:scale(0,0);
}
100% {

}
}
@keyframes zr0-ani-4 {
0% {
transform:scale(0,0);
}
100% {

}
}
]]>

</style>
</svg>