<svg width="960" height="540" xmlns="http://www.w3.org/2000/svg" xmlns:xlink="http://www.w3.org/1999/xlink" version="1.1" baseProfile="full" viewBox="0 0 960 540">
<rect width="960" height="540" x="0" y="0" fill="none"></rect>
<g clip-path="url(#zr0-c0)">
<path d="M20 0C126.7 0 126.7 0 233.3 0L233.3 486C126.7 486 126.7 486 20 486Z" transform="translate(48 27)" fill="url(#zr0-g0)" fill-opacity="0.2" ecmeta_series_index="0" ecmeta_data_index="0" ecmeta_ssr_type="chart" class="zr0-cls-2"></path>
<path d="M253.3 0C360 0 360 19.4 466.7 19.4L466.7 466.6C360 466.6 360 447.1 253.3 447.1Z" transform="translate(48 27)" fill="url(#zr0-g1)" fill-opacity="0.2" ecmeta_series_index="0" ecmeta_data_index="1" ecmeta_ssr_type="chart" class="zr0-cls-3"></path>
<path d="M486.7 19.4C593.3 19.4 593.3 63.2 700 63.2L700 422.8C593.3 422.8 593.3 379.1 486.7 379.1Z" transform="translate(48 27)" fill="url(#zr0-g2)" fill-opacity="0.2" ecmeta_series_index="0" ecmeta_data_index="2" ecmeta_ssr_type="chart" class="zr0-cls-4"></path>
<path d="M0 0l20 0l0 486l-20 0Z" transform="translate(48 27)" fill="rgb(234,124,204)" ecmeta_series_index="0" ecmeta_data_index="0" ecmeta_ssr_type="chart" class="zr0-cls-5"></path>
<path d="M233.3 0l20 0l0 486l-20 0Z" transform="translate(48 27)" fill="rgb(234,124,204)" ecmeta_series_index="0" ecmeta_data_index="1" ecmeta_ssr_type="chart" class="zr0-cls-5"></path>
<path d="M466.7 19.4l20 0l0 447.1l-20 0Z" transform="translate(48 27)" fill="rgb(163,146,97)" ecmeta_series_index="0" ecmeta_data_index="2" ecmeta_ssr_type="chart" class="zr0-cls-6"></path>
<path d="M700 63.2l20 0l0 359.6l-20 0Z" transform="translate(48 27)" fill="rgb(84,112,198)" ecmeta_series_index="0" ecmeta_data_index="3" ecmeta_ssr_type="chart" class="zr0-cls-7"></path>
<text dominant-baseline="central" text-anchor="start" style="font-size:12px;font-family:sans-serif;" transform="translate(73 270)" fill="#333" stroke="rgb(255,255,255)" stroke-width="2" paint-order="stroke" stroke-miterlimit="2">User</text>
<text dominant-baseline="central" text-anchor="start" style="font-size:12px;font-family:sans-serif;" transform="translate(306.3333 270)" fill="#333" stroke="rgb(255,255,255)" stroke-width="2" paint-order="stroke" stroke-miterlimit="2">Agent</text>
<text dominant-baseline="central" text-anchor="start" style="font-size:12px;font-family:sans-serif;" xml:space="preserve" transform="translate(539.6667 270)" fill="#333" stroke="rgb(255,255,255)" stroke-width="2" paint-order="stroke" stroke-miterlimit="2">Chart Skill</text>
<text dominant-baseline="central" text-anchor="start" style="font-size:12px;font-family:sans-serif;" xml:space="preserve" transform="translate(773 270)" fill="#333" stroke="rgb(255,255,255)" stroke-width="2" paint-order="stroke" stroke-miterlimit="2">SVG Export</text>
</g>
<path d="M-72.8 -5l145.5 0l0 28l-145.5 0Z" transform="translate(480 5)" fill="rgb(0,0,0)" fill-opacity="0" stroke="#ccc" stroke-width="0" class="zr0-cls-8"></path>
<text dominant-baseline="central" text-anchor="middle" style="font-size:18px;font-family:sans-serif;font-weight:bold;" xml:space="preserve" y="9" transform="translate(480 5)" fill="#464646">Skill handoff flow</text>
<defs >
<clipPath id="zr0-c0">
<path d="M-10 -10l740 0l0 506l-740 0Z" transform="translate(48 27)" fill="#000" class="zr0-cls-0 zr0-cls-1"></path>
</clipPath>
<linearGradient gradientUnits="objectBoundingBox" x1="0" y1="0" x2="1" y2="0" id="zr0-g0">
<stop offset="0%" stop-color="rgb(234,124,204)"></stop>
<stop offset="100%" stop-color="rgb(234,124,204)"></stop>
</linearGradient>
<linearGradient gradientUnits="objectBoundingBox" x1="0" y1="0" x2="1" y2="0" id="zr0-g1">
<stop offset="0%" stop-color="rgb(234,124,204)"></stop>
<stop offset="100%" stop-color="rgb(163,146,97)"></stop>
</linearGradient>
<linearGradient gradientUnits="objectBoundingBox" x1="0" y1="0" x2="1" y2="0" id="zr0-g2">
<stop offset="0%" stop-color="rgb(163,146,97)"></stop>
<stop offset="100%" stop-color="rgb(84,112,198)"></stop>
</linearGradient>
</defs>
<style ><![CDATA[
.zr0-cls-0 {
animation:zr0-ani-0 1s linear both;
}
.zr0-cls-1:hover {
cursor:pointer;
fill:rgba(0,0,0,1);
}
.zr0-cls-2:hover {
cursor:pointer;
fill:[object Object];
}
.zr0-cls-3:hover {
cursor:pointer;
fill:[object Object];
}
.zr0-cls-4:hover {
cursor:pointer;
fill:[object Object];
}
.zr0-cls-5:hover {
cursor:pointer;
fill:rgba(255,136,224,1);
}
.zr0-cls-6:hover {
cursor:pointer;
fill:rgba(179,160,106,1);
}
.zr0-cls-7:hover {
cursor:pointer;
fill:rgba(92,123,217,1);
}
.zr0-cls-8:hover {
pointer-events:none;
}
@keyframes zr0-ani-0 {
0% {
d:path("M-10 -10l0 0l0 506l0 0Z");
}
100% {
d:path("M-10 -10l740 0l0 506l-740 0Z");
}
}
]]>

</style>
</svg>